<svg viewBox="0 0 53.5062 19.9829" xmlns="http://www.w3.org/2000/svg" xmlns:xlink="http://www.w3.org/1999/xlink" width="53.506165" height="19.982910" fill="none" customFrame="#000000">
	<path id="Arrow 1" d="M0 8.49146L4.62222 8.49146L4.62222 11.4915L0 11.4915L0 8.49146ZM5.77778 8.49146L15.0222 8.49146L15.0222 11.4915L5.77778 11.4915L5.77778 8.49146ZM16.1778 8.49146L25.4222 8.49146L25.4222 11.4915L16.1778 11.4915L16.1778 8.49146ZM26.5778 8.49146L35.8222 8.49146L35.8222 11.4915L26.5778 11.4915L26.5778 8.49146ZM36.9778 8.49146L46.2222 8.49146L46.2222 11.4915L36.9778 11.4915L36.9778 8.49146ZM47.3778 8.49146L52 8.49146L52 11.4915L47.3778 11.4915L47.3778 8.49146ZM49.8787 9.99146L42.4541 2.56684C41.8601 1.97287 41.8601 1.03949 42.4541 0.445517C43.048 -0.148453 43.9814 -0.148455 44.5754 0.445515L53.0607 8.9308C53.6546 9.52477 53.6546 10.4581 53.0607 11.0521L44.5754 19.5374C43.9814 20.1314 43.048 20.1314 42.4541 19.5374C41.8601 18.9434 41.8601 18.01 42.4541 17.4161L49.8787 9.99146Z" fill="rgb(0,0,0)" fill-rule="nonzero" />
</svg>
