<svg width="23" height="54" viewBox="0 0 23 54" fill="none" xmlns="http://www.w3.org/2000/svg">
<path d="M12.1066 53.0607C11.5208 53.6464 10.5711 53.6464 9.98527 53.0607L0.439327 43.5147C-0.14646 42.9289 -0.14646 41.9792 0.439327 41.3934C1.02511 40.8076 1.97486 40.8076 2.56065 41.3934L11.0459 49.8787L19.5312 41.3934C20.117 40.8076 21.0667 40.8076 21.6525 41.3934C22.2383 41.9792 22.2383 42.9289 21.6525 43.5147L12.1066 53.0607ZM11.0459 0L12.5459 0V3.85185H11.0459H9.54593V0L11.0459 0ZM11.0459 4.81482H12.5459V12.5185H11.0459H9.54593V4.81482H11.0459ZM11.0459 13.4815H12.5459V21.1852H11.0459H9.54593V13.4815H11.0459ZM11.0459 22.1481H12.5459V29.8519H11.0459H9.54593V22.1481H11.0459ZM11.0459 30.8148H12.5459V38.5185H11.0459H9.54593V30.8148H11.0459ZM11.0459 39.4815H12.5459V47.1852H11.0459H9.54593V39.4815H11.0459ZM11.0459 48.1482H12.5459V52H11.0459H9.54593V48.1482H11.0459ZM12.1066 53.0607C11.5208 53.6464 10.5711 53.6464 9.98527 53.0607L0.439327 43.5147C-0.14646 42.9289 -0.14646 41.9792 0.439327 41.3934C1.02511 40.8076 1.97486 40.8076 2.56065 41.3934L11.0459 49.8787L19.5312 41.3934C20.117 40.8076 21.0667 40.8076 21.6525 41.3934C22.2383 41.9792 22.2383 42.9289 21.6525 43.5147L12.1066 53.0607ZM11.0459 0L12.5459 0V3.85185H11.0459H9.54593V0L11.0459 0ZM11.0459 4.81482H12.5459V12.5185H11.0459H9.54593V4.81482H11.0459ZM11.0459 13.4815H12.5459V21.1852H11.0459H9.54593V13.4815H11.0459ZM11.0459 22.1481H12.5459V29.8519H11.0459H9.54593V22.1481H11.0459ZM11.0459 30.8148H12.5459V38.5185H11.0459H9.54593V30.8148H11.0459ZM11.0459 39.4815H12.5459V47.1852H11.0459H9.54593V39.4815H11.0459ZM11.0459 48.1482H12.5459V52H11.0459H9.54593V48.1482H11.0459Z" fill="black"/>
</svg>
