<svg viewBox="0 0 135.688 24.2544" xmlns="http://www.w3.org/2000/svg" xmlns:xlink="http://www.w3.org/1999/xlink" width="135.688232" height="24.254395" fill="none" customFrame="#000000">
	<g id="Group 28">
		<path id="Vector" d="M8.67496 4.13348C10.2115 1.37815 10.9791 0.000488281 12.1276 0.000488281C13.2761 0.000488281 14.0437 1.37815 15.5803 4.13348L15.978 4.84657C16.4146 5.62999 16.6329 6.0217 16.9725 6.28002C17.312 6.53833 17.7365 6.63413 18.5854 6.82574L19.3567 7.00038C22.34 7.67587 23.8305 8.01301 24.1858 9.15419C24.5399 10.2942 23.5237 11.4838 21.4899 13.862L20.9636 14.4769C20.3863 15.1524 20.0965 15.4907 19.9667 15.9079C19.8369 16.3263 19.8806 16.7774 19.9679 17.6785L20.048 18.4995C20.3548 21.6732 20.5088 23.2595 19.5798 23.9641C18.6509 24.6699 17.2538 24.0259 14.4621 22.7404L13.7381 22.4081C12.945 22.0419 12.5484 21.86 12.1276 21.86C11.7068 21.86 11.3102 22.0419 10.5171 22.4081L9.79431 22.7404C7.00139 24.0259 5.60432 24.6687 4.67658 23.9653C3.74641 23.2595 3.90043 21.6732 4.20725 18.4995L4.28729 17.6797C4.37461 16.7774 4.41827 16.3263 4.28729 15.9091C4.15874 15.4907 3.8689 15.1524 3.29164 14.4781L2.76531 13.862C0.731563 11.4851 -0.284707 10.2954 0.0694107 9.15419C0.424741 8.01301 1.9164 7.67466 4.89972 7.00038L5.67102 6.82574C6.51872 6.63413 6.94196 6.53833 7.28274 6.28002C7.62231 6.0217 7.8406 5.62999 8.27718 4.84657L8.67496 4.13348Z" fill="rgb(255,164.9,29.75)" fill-rule="nonzero" />
		<path id="Vector" d="M36.5332 4.13348C38.0697 1.37815 38.8374 0.000488281 39.9858 0.000488281C41.1343 0.000488281 41.9019 1.37815 43.4385 4.13348L43.8362 4.84657C44.2728 5.62999 44.4911 6.0217 44.8307 6.28002C45.1702 6.53833 45.5947 6.63413 46.4436 6.82574L47.2149 7.00038C50.1982 7.67587 51.6887 8.01301 52.044 9.15419C52.3981 10.2942 51.3819 11.4838 49.3481 13.862L48.8218 14.4769C48.2445 15.1524 47.9547 15.4907 47.8249 15.9079C47.6952 16.3263 47.7388 16.7774 47.8261 17.6785L47.9062 18.4995C48.213 21.6732 48.367 23.2595 47.4381 23.9641C46.5091 24.6699 45.112 24.0259 42.3203 22.7404L41.5963 22.4081C40.8032 22.0419 40.4066 21.86 39.9858 21.86C39.565 21.86 39.1684 22.0419 38.3753 22.4081L37.6525 22.7404C34.8596 24.0259 33.4625 24.6687 32.5348 23.9653C31.6046 23.2595 31.7586 21.6732 32.0655 18.4995L32.1455 17.6797C32.2328 16.7774 32.2765 16.3263 32.1455 15.9091C32.017 15.4907 31.7271 15.1524 31.1499 14.4781L30.6235 13.862C28.5898 11.4851 27.5735 10.2954 27.9276 9.15419C28.283 8.01301 29.7746 7.67466 32.7579 7.00038L33.5292 6.82574C34.3769 6.63413 34.8002 6.53833 35.141 6.28002C35.4805 6.0217 35.6988 5.62999 36.1354 4.84657L36.5332 4.13348Z" fill="rgb(255,164.9,29.75)" fill-rule="nonzero" />
		<path id="Vector" d="M64.3914 4.13348C65.928 1.37815 66.6956 0.000488281 67.8441 0.000488281C68.9926 0.000488281 69.7602 1.37815 71.2967 4.13348L71.6945 4.84657C72.1311 5.62999 72.3494 6.0217 72.689 6.28002C73.0285 6.53833 73.453 6.63413 74.3019 6.82574L75.0732 7.00038C78.0565 7.67587 79.547 8.01301 79.9023 9.15419C80.2564 10.2942 79.2401 11.4838 77.2064 13.862L76.6801 14.4769C76.1028 15.1524 75.813 15.4907 75.6832 15.9079C75.5534 16.3263 75.5971 16.7774 75.6844 17.6785L75.7645 18.4995C76.0713 21.6732 76.2253 23.2595 75.2963 23.9641C74.3674 24.6699 72.9703 24.0259 70.1786 22.7404L69.4546 22.4081C68.6615 22.0419 68.2649 21.86 67.8441 21.86C67.4233 21.86 67.0267 22.0419 66.2336 22.4081L65.5108 22.7404C62.7179 24.0259 61.3208 24.6687 60.3931 23.9653C59.4629 23.2595 59.6169 21.6732 59.9237 18.4995L60.0038 17.6797C60.0911 16.7774 60.1348 16.3263 60.0038 15.9091C59.8752 15.4907 59.5854 15.1524 59.0081 14.4781L58.4818 13.862C56.4481 11.4851 55.4318 10.2954 55.7859 9.15419C56.1412 8.01301 57.6329 7.67466 60.6162 7.00038L61.3875 6.82574C62.2352 6.63413 62.6585 6.53833 62.9992 6.28002C63.3388 6.0217 63.5571 5.62999 63.9937 4.84657L64.3914 4.13348Z" fill="rgb(255,164.9,29.75)" fill-rule="nonzero" />
		<path id="Vector" d="M92.2497 4.13348C93.7862 1.37815 94.5539 0.000488281 95.7023 0.000488281C96.8508 0.000488281 97.6184 1.37815 99.155 4.13348L99.5527 4.84657C99.9893 5.62999 100.208 6.0217 100.547 6.28002C100.887 6.53833 101.311 6.63413 102.16 6.82574L102.931 7.00038C105.915 7.67587 107.405 8.01301 107.761 9.15419C108.115 10.2942 107.098 11.4838 105.065 13.862L104.538 14.4769C103.961 15.1524 103.671 15.4907 103.541 15.9079C103.412 16.3263 103.455 16.7774 103.543 17.6785L103.623 18.4995C103.929 21.6732 104.084 23.2595 103.155 23.9641C102.226 24.6699 100.829 24.0259 98.0368 22.7404L97.3128 22.4081C96.5197 22.0419 96.1231 21.86 95.7023 21.86C95.2815 21.86 94.8849 22.0419 94.0918 22.4081L93.369 22.7404C90.5761 24.0259 89.179 24.6687 88.2513 23.9653C87.3211 23.2595 87.4751 21.6732 87.782 18.4995L87.862 17.6797C87.9493 16.7774 87.993 16.3263 87.862 15.9091C87.7335 15.4907 87.4436 15.1524 86.8663 14.4781L86.34 13.862C84.3063 11.4851 83.29 10.2954 83.6441 9.15419C83.9995 8.01301 85.4911 7.67466 88.4744 7.00038L89.2457 6.82574C90.0934 6.63413 90.5167 6.53833 90.8575 6.28002C91.197 6.0217 91.4153 5.62999 91.8519 4.84657L92.2497 4.13348Z" fill="rgb(255,164.9,29.75)" fill-rule="nonzero" />
		<path id="Vector" d="M120.108 4.13348C121.644 1.37815 122.412 0.000488281 123.561 0.000488281C124.709 0.000488281 125.477 1.37815 127.013 4.13348L127.411 4.84657C127.848 5.62999 128.066 6.0217 128.405 6.28002C128.745 6.53833 129.169 6.63413 130.018 6.82574L130.79 7.00038C133.773 7.67587 135.263 8.01301 135.619 9.15419C135.973 10.2942 134.957 11.4838 132.923 13.862L132.397 14.4769C131.819 15.1524 131.529 15.4907 131.4 15.9079C131.27 16.3263 131.314 16.7774 131.401 17.6785L131.481 18.4995C131.788 21.6732 131.942 23.2595 131.013 23.9641C130.084 24.6699 128.687 24.0259 125.895 22.7404L125.171 22.4081C124.378 22.0419 123.981 21.86 123.561 21.86C123.14 21.86 122.743 22.0419 121.95 22.4081L121.227 22.7404C118.434 24.0259 117.037 24.6687 116.11 23.9653C115.179 23.2595 115.333 21.6732 115.64 18.4995L115.72 17.6797C115.808 16.7774 115.851 16.3263 115.72 15.9091C115.592 15.4907 115.302 15.1524 114.725 14.4781L114.198 13.862C112.165 11.4851 111.148 10.2954 111.502 9.15419C111.858 8.01301 113.349 7.67466 116.333 7.00038L117.104 6.82574C117.952 6.63413 118.375 6.53833 118.716 6.28002C119.055 6.0217 119.274 5.62999 119.71 4.84657L120.108 4.13348Z" fill="rgb(255,164.9,29.75)" fill-rule="nonzero" />
	</g>
</svg>
