<svg width="109" height="109" viewBox="0 0 109 109" fill="none" xmlns="http://www.w3.org/2000/svg">
<rect x="31.4976" y="31.9612" width="39.6516" height="43.0996" fill="black"/>
<path fill-rule="evenodd" clip-rule="evenodd" d="M54.1426 108.285C68.5021 108.285 82.2735 102.581 92.4272 92.4272C102.581 82.2735 108.285 68.5021 108.285 54.1426C108.285 39.7831 102.581 26.0117 92.4272 15.858C82.2735 5.70429 68.5021 0 54.1426 0C39.7831 0 26.0117 5.70429 15.858 15.858C5.70429 26.0117 0 39.7831 0 54.1426C0 68.5021 5.70429 82.2735 15.858 92.4272C26.0117 102.581 39.7831 108.285 54.1426 108.285ZM51.1309 34.9761C50.1117 34.2961 48.9269 33.9055 47.7031 33.8461C46.4793 33.7866 45.2623 34.0605 44.1819 34.6386C43.1016 35.2166 42.1984 36.0771 41.5688 37.1282C40.9392 38.1793 40.6068 39.3817 40.6069 40.6069V67.6782C40.6068 68.9035 40.9392 70.1058 41.5688 71.157C42.1984 72.2081 43.1016 73.0686 44.1819 73.6466C45.2623 74.2246 46.4793 74.4985 47.7031 74.4391C48.9269 74.3797 50.1117 73.9891 51.1309 73.3091L71.4344 59.7734C72.3613 59.1554 73.1213 58.318 73.6469 57.3358C74.1726 56.3535 74.4476 55.2567 74.4476 54.1426C74.4476 53.0285 74.1726 51.9317 73.6469 50.9494C73.1213 49.9671 72.3613 49.1298 71.4344 48.5118L51.1309 34.9761Z" fill="white"/>
</svg>
